Patient4_TMGait_0pt5_01_right_24_EMG.mot
version=1
nRows=29
nColumns=33
inDegrees=no
endheader
time	1LAddLong	2LGlutMax	3LGlutMed	4LIliopsoas	5LSemiMemb	6LBicFemLong	7LRecFem	8LVastMed	9LVastLat	10LGasMed	11LTibAnt	12lTibPost	13LPeroneusLong	14LSol	15LExtDigLong	16LFlexDigLong	17RAddLong	18RGlutMax	19RGlutMed	20RIliopsoas	21RSemiMemb	22RBicFemLong	23RRecFem	24RVastMed	25RVastLat	26RGasMed	27RTibAnt	28RTibPost	29RPeroneusLong	30RSol	31RExtDigLong	32RFlexDigLong
32.845	-0.00473	-0.036621	-0.080261	0.015106	0.030365	-0.36057	0.021667	-0.000763	0.014954	0.044556	-0.19058	0.00946	-0.44067	-0.12787	-0.25024	-0.003662	-0.04425	-0.018768	0.24933	-0.010376	0.05722	0.019379	-0.076141	-0.061646	0.016479	0.005798	0.32806	-0.002747	-0.27329	-0.045013	-0.005188	-0.015869
32.846	-0.003967	-0.012054	-0.014038	-0.015259	0.022888	-0.52017	0.014801	-0.001221	0.012512	0.063324	-0.19852	-0.002747	-0.34698	-0.38361	-0.383	-0.007629	-0.055847	-0.023651	0.50262	-0.037384	0.051575	0.005493	-0.023956	-0.070343	0.014648	0.001526	0.39566	-0.001984	-0.32272	-0.084839	-0.002594	-0.007935
32.847	-0.003967	0.005188	0.076447	0.006714	0.019989	-0.28259	0.003052	0.007935	-0.014496	0.037842	-0.2182	0.003204	-0.26947	-0.4068	-0.18753	0.00351	-0.049896	-0.057831	0.36423	-0.015564	0.0354	0.052032	0.041656	-0.070801	0.035095	-0.00061	0.47852	-0.007935	-0.18341	-0.045471	-0.003967	0.001068
32.848	-0.003357	-0.026855	0.004883	0.009613	0.043488	-0.091095	0.087585	0.011444	-0.036774	0.026855	-0.17532	0	0.009766	-0.24567	0.050354	0.018158	-0.025177	-0.13962	-0.10468	0.018616	0.052643	0.029449	0.046082	-0.063629	0.024414	0.000763	0.51758	-0.007782	0.007324	-0.06485	-0.001526	-0.006714
32.849	0.002136	-0.045166	-0.10788	0.013733	0.058594	-0.022888	0.12192	0.008392	-0.076294	0.008698	-0.018921	-0.004578	0.2034	0.094147	0.23193	0.011139	0.012512	-0.16769	0.058289	-0.007782	0.1329	-0.04425	-0.033569	-0.09079	0.001984	-0.013733	-0.057678	-0.00412	0.061035	-0.16693	-0.001526	-0.005493
32.85	0.001678	-0.060272	-0.19638	0.006104	0.042725	0.07019	0.11154	0.009155	-0.078888	0.009155	0.22247	0.001984	0.23544	0.13641	0.2478	0.011444	0.040131	-0.052948	0.49759	-0.025482	0.088959	-0.001526	-0.084839	-0.11261	-0.005035	-0.009613	-0.47897	-0.006714	-0.009613	-0.16556	-0.00412	-0.009308
32.851	-0.007629	-0.039215	-0.1442	0.009766	0.036316	0.15305	0.10284	0.014343	-0.062561	-0.013275	0.10666	-0.001068	0.19531	0.074005	0.2179	0.020447	0.020599	-0.028687	0.35156	0.007782	0.078583	0.070648	-0.097961	-0.1294	0.000763	0	-0.47791	-0.006714	0.036316	-0.091095	-0.004272	-0.006104
32.852	0.010834	-0.063782	0.004425	-0.005341	0.028534	0.2092	0.074005	-0.001221	0.002899	-0.018158	0.087433	0.001068	-0.17227	-0.037994	0.049438	0.00946	-0.007019	-0.095673	0.40909	-0.004272	0.03418	0.10696	-0.060425	-0.084229	-0.015869	0.010834	-0.28534	-0.007629	0.22049	-0.16861	-0.003662	0.001373
32.853	0.006866	-0.029755	0.14938	-0.015259	0.017395	0.19638	-0.018158	0.005035	0.15732	-0.007935	0.055695	0.006561	-0.62622	-0.085907	0.03418	0.010071	-0.068359	-0.1268	0.11292	0.04425	-0.16327	0.15335	-0.077667	0.070953	0.019379	0.018921	0.095673	-0.010071	0.30685	-0.1831	-0.000916	-0.002136
32.854	0.009308	-0.095673	0.021362	-0.018921	0.032654	-0.081177	0.005188	-0.007782	0.077209	0.028992	0	0.000763	-0.33859	-0.072632	0.23895	0.013275	-0.063019	-0.14358	-0.34927	0.078278	-0.075684	0.17548	-0.072937	0.091705	0.035095	0.008392	0.1648	-0.006866	0.13412	0.004578	-0.005493	-0.006256
32.855	-0.002289	-0.098572	0.056915	-0.002136	0.032349	-0.16739	0.061035	-0.002899	0.036011	0.024872	0.046082	0.012054	0.49591	0.088654	0.15488	0.022125	-0.054779	-0.10544	-0.26337	0.046539	-0.067444	0.092773	-0.058136	0.085907	0.003052	-0.006866	-0.013123	-0.007629	-0.021973	0.10956	-0.004425	-0.01236
32.856	-0.003815	-0.074921	0.036621	0.007477	0.028992	-0.40527	0.033875	0.001526	0.003357	-0.006104	0.26123	0.007172	0.01358	0.11139	0.63217	0.015717	-0.042725	-0.089874	-0.11154	-0.036469	-0.059204	-0.012665	-0.041199	0.063934	-0.00824	-0.012817	0.25497	-0.012054	-0.12848	0.077209	-0.004578	-0.011292
32.857	0.00824	-0.052795	0.023956	-0.013885	0.035095	-0.44083	0.004272	0.002899	-0.012512	-0.044556	0.26977	0.009308	-0.14893	0.10162	-0.2063	0.013885	-0.018921	-0.058289	-0.060425	-0.084839	-0.066986	-0.079498	-0.024567	0.03952	0.004578	-0.017548	0.45868	-0.012512	-0.1796	0.022278	-0.00412	-0.00946
32.858	0.007019	-0.0383	0.004883	-0.009766	0.044708	-0.045776	-0.038605	0.006104	-0.012207	-0.011902	-0.003204	0.011749	-0.094757	-0.014038	-0.17807	-0.008698	-0.010223	-0.011139	-0.044556	0.009613	-0.063324	-0.095978	-0.032806	-0.019379	-0.000305	-0.017548	0.47745	-0.005493	-0.24353	-0.030212	-0.003662	-0.012054
32.859	0.007019	-0.033112	0.002289	0.012512	0.040436	0.17212	-0.027618	-0.003204	-0.002747	-0.02243	-0.21713	-0.00412	-0.23483	-0.013123	-0.25803	0.003204	0.005493	-0.03006	-0.066528	0.058136	-0.035706	-0.086365	-0.021057	-0.041351	-0.012054	-0.010376	0.62897	-0.008087	-0.21225	-0.072632	-0.007324	-0.021515
32.86	0.006104	-0.035248	0.078583	0.0177	0.029602	0.22919	-0.01236	0.002747	0.015106	-0.064087	-0.33905	0.00473	0.48645	0.21515	0.060425	0.002289	0.017242	0.015259	-0.018768	0.001373	-0.068665	-0.013428	-0.028229	-0.037079	-0.002289	0.015564	0.41199	-0.009613	-0.081177	-0.005951	-0.008392	-0.010223
32.861	0.007019	-0.063019	0.09079	0.028229	0.024567	0.13825	0.03006	0.007935	-0.072021	-0.053406	-0.11963	0.011139	0.26382	0.15793	0.28503	0.009308	0.010529	-0.039215	0.016937	-0.098267	-0.082245	-0.077667	-0.027161	-0.059814	-0.010071	0.011902	-0.65674	0.001831	0.013428	-0.01236	-0.005798	-0.01297
32.862	0.003052	-0.075989	0.014343	0.00824	0.046844	-0.20645	0.054779	0.004425	-0.067444	0.017242	0.10559	0.006866	-0.014038	0.007935	-0.095215	0.000916	0.002594	-0.00946	0.006256	-0.13062	-0.14343	-0.087128	-0.019226	-0.078583	-0.00351	0.00412	-0.28	-0.008545	-0.11383	0.011749	-0.006409	-0.006409
32.863	0.008392	-0.02121	-0.008545	-0.00412	0.032349	-0.10071	0.009308	0.004272	-0.00351	0.020905	0.082397	0.012665	0.088043	-0.083466	-0.28061	0.004578	-0.011292	0.036163	-0.006714	-0.067139	-0.016937	-0.000305	-0.030975	-0.047302	0.010223	-0.000458	0.003815	-0.006561	-0.085754	0.095367	-0.006104	-0.005341
32.864	0.005035	-0.019836	0.028839	0.00946	0.028534	0.004883	0.020599	0.010071	0.032806	0.02655	-0.011139	0.000458	-0.015564	-0.054932	-0.45548	0.009766	-0.009918	0.055237	-0.011902	0.17609	0.12924	0.17395	-0.04776	-0.059204	-0.001678	-0.001678	-0.083771	-0.010223	-0.021973	0.089569	-0.00412	0.009155
32.865	0.006256	0.000458	0.12558	0.012665	0.034943	0.043335	0.023956	0.014801	0.060883	0.043182	0.001984	0.014038	-0.1294	-0.00885	-0.26138	0.009766	0.000305	0.02594	0.03952	0.1828	-0.081482	0.12573	0.006104	-0.067444	0.001984	-0.005188	0.022888	-0.010834	-0.016785	-0.028534	-0.004883	-0.000458
32.866	0.002594	-0.029602	0.070038	0.007629	0.013275	0.054474	0.040283	0.017853	0.039978	0.10757	-0.006104	0.000763	-0.058594	0.21408	-0.007935	0.003204	0.028992	0.005951	-0.035248	0.050812	-0.19455	0.07019	0.038605	-0.081787	0.007629	-0.012665	0.1831	-0.00885	-0.023193	-0.046082	-0.002594	-0.012207
32.867	0.006866	-0.044708	-0.013885	0.016022	0.014038	0.038757	0.001068	0.009155	0.063019	0.19333	-0.10757	-0.00824	-0.04425	0.2681	0.10727	-0.004883	0.0354	0.013123	-0.042267	-0.025482	-0.20538	0.053101	0.010071	-0.092316	0.006866	-0.00885	0.057983	-0.005188	-0.022278	0.035706	-0.006561	-0.006256
32.868	0.016785	-0.032501	-0.13046	0.027466	0.020142	0.019531	-0.070343	0.015869	0.076447	0.23514	-0.072174	0.009003	-0.12283	0.002747	-0.024414	0.018311	0.025024	0.031586	0.021057	-0.006409	-0.020599	0.073242	-0.023651	-0.050812	-0.011444	-0.013428	0.081024	-0.011749	-0.061951	0.052948	-0.007935	-0.002289
32.869	0.006409	0.001068	-0.16266	0.002289	0.006104	0.009155	-0.088959	0.015106	0.00351	0.30823	-0.008087	0.003052	-0.10193	-0.26718	0.036926	0.003815	0.002136	0.060883	0.038757	0.056763	0.33295	0.060883	-0.011902	-0.041962	-0.008392	-0.013123	0.19287	-0.009155	-0.016022	0.046539	-0.00946	-0.007782
32.87	0.009308	0.027466	0.075378	-0.010071	0.013885	-0.063019	-0.053711	0.00885	-0.002747	0.46967	-0.026703	-0.005188	0.11551	-0.31296	0.11475	0.015411	0.006256	0.091248	0.056458	0.062103	0.21103	0.041656	0.007172	-0.051727	0.002136	-0.011902	0.12451	-0.005035	0.038147	0.021515	-0.003052	-0.009766
32.871	0.005341	-0.000458	0.20065	-0.000458	0.030975	-0.094757	-0.015869	0.010986	0.012054	0.33142	-0.02243	-0.001221	0.15167	-0.25925	0.04837	0.012207	0.021057	0.10422	0.054474	0.056915	0.019684	0.031738	0.019684	-0.055237	-0.017242	-0.001373	-0.10605	-0.00824	0.01709	0.001678	-0.008392	-0.008698
32.872	0.010223	-0.013123	0.12924	0.003967	0.027924	-0.064697	-0.025177	0.005035	0.020142	0.070496	-0.026093	0.009003	-0.009155	-0.15472	0.18005	0.008545	0.014954	0.11322	-0.085297	0.025635	-0.026245	0.004883	0.009766	-0.049744	-0.005951	-0.002136	-0.34286	-0.00351	0.006256	-0.060425	-0.007324	-0.01358
32.873	0.003815	-0.000153	0.070038	0.042114	0.02655	-0.018616	0.002289	0.002594	-0.00351	-0.020142	-0.05722	0.00946	-0.098572	-0.18707	-0.006561	0.005646	0.008087	0.14511	-0.28976	-0.006104	-0.004425	-0.032654	-0.068817	-0.050201	-0.02182	-0.003662	-0.271	-0.012817	-0.01297	-0.067902	-0.004272	-0.007935
